<?xml version="1.0" encoding="UTF-8" standalone="no" ?>
<!DOCTYPE svg PUBLIC "-//W3C//DTD SVG 1.1//EN" "http://www.w3.org/Graphics/SVG/1.1/DTD/svg11.dtd">
<svg xmlns="http://www.w3.org/2000/svg" xmlns:xlink="http://www.w3.org/1999/xlink" version="1.1" width="87" height="87" viewBox="0 0 29 29" xml:space="preserve">
<desc>Created with Fabric.js 3.6.3</desc>
<defs>
</defs>
<g transform="matrix(1 0 0 1 14.76 15.76)"  >
<g style=""   >
		<g transform="matrix(1 0 0 1 0 -1)" clip-path="url(#CLIPPATH_5)"  >
<clipPath id="CLIPPATH_5" >
	<path transform="matrix(1 0 0 1 0 0) translate(-13.76, -13.76)" d="M 13.758 0 A 13.758 13.758 0 1 1 0 13.758 A 13.758 13.758 0 0 1 13.758 0 Z" stroke-linecap="round" />
</clipPath>
<path style="stroke: none; stroke-width: 1; stroke-dasharray: none; stroke-linecap: butt; stroke-dashoffset: 0; stroke-linejoin: miter; stroke-miterlimit: 4; fill: rgb(213,213,213); fill-rule: nonzero; opacity: 0;"  transform=" translate(-13.76, -13.76)" d="M 13.75750637054443 27.01505661010742 C 10.21629619598389 27.01505661010742 6.887046337127686 25.63603591918945 4.383036136627197 23.13201713562012 C 1.879016399383545 20.62799644470215 0.4999963641166687 17.29873657226562 0.4999963641166687 13.75752639770508 C 0.4999963641166687 10.21631622314453 1.879016399383545 6.887056350708008 4.383036136627197 4.383036613464355 C 6.887046337127686 1.879016399383545 10.21629619598389 0.4999963939189911 13.75750637054443 0.4999963939189911 C 17.29871559143066 0.4999963939189911 20.62796592712402 1.879016399383545 23.13197708129883 4.383036613464355 C 25.63599586486816 6.887056350708008 27.01501655578613 10.21631622314453 27.01501655578613 13.75752639770508 C 27.01501655578613 17.29873657226562 25.63599586486816 20.62799644470215 23.13197708129883 23.13201713562012 C 20.62796592712402 25.63603591918945 17.29871559143066 27.01505661010742 13.75750637054443 27.01505661010742 Z" stroke-linecap="round" />
</g>
		<g transform="matrix(1 0 0 1 0 -1)" clip-path="url(#CLIPPATH_6)"  >
<clipPath id="CLIPPATH_6" >
	<path transform="matrix(1 0 0 1 0 0) translate(-13.76, -13.76)" d="M 13.758 0 A 13.758 13.758 0 1 1 0 13.758 A 13.758 13.758 0 0 1 13.758 0 Z" stroke-linecap="round" />
</clipPath>
<path style="stroke: none; stroke-width: 1; stroke-dasharray: none; stroke-linecap: butt; stroke-dashoffset: 0; stroke-linejoin: miter; stroke-miterlimit: 4; fill: rgb(78,78,78); fill-rule: nonzero; opacity: 0;"  transform=" translate(-13.76, -13.76)" d="M 13.75750637054443 0.9999961853027344 C 10.34985542297363 0.9999961853027344 7.14616584777832 2.327016830444336 4.73658561706543 4.73658561706543 C 2.327007293701172 7.146177291870117 0.9999961853027344 10.34986686706543 0.9999961853027344 13.75752639770508 C 0.9999961853027344 17.16518592834473 2.327007293701172 20.36887741088867 4.73658561706543 22.77846527099609 C 7.14616584777832 25.18803596496582 10.34985542297363 26.51505661010742 13.75750637054443 26.51505661010742 C 17.16515731811523 26.51505661010742 20.36884689331055 25.18803596496582 22.77842712402344 22.77846527099609 C 25.18800735473633 20.36887741088867 26.51501655578613 17.16518592834473 26.51501655578613 13.75752639770508 C 26.51501655578613 10.34986686706543 25.18800735473633 7.146177291870117 22.77842712402344 4.73658561706543 C 20.36884689331055 2.327016830444336 17.16515731811523 0.9999961853027344 13.75750637054443 0.9999961853027344 M 13.75750637054443 -0.000003814697265625 C 21.35556602478027 -0.000003814697265625 27.51501655578613 6.159456253051758 27.51501655578613 13.75752639770508 C 27.51501655578613 21.3555965423584 21.35556602478027 27.51505661010742 13.75750637054443 27.51505661010742 C 6.159446716308594 27.51505661010742 -0.000003814697265625 21.3555965423584 -0.000003814697265625 13.75752639770508 C -0.000003814697265625 6.159456253051758 6.159446716308594 -0.000003814697265625 13.75750637054443 -0.000003814697265625 Z" stroke-linecap="round" />
</g>
		<g transform="matrix(-1 0 0 -1 -2.37 -0.64)" clip-path="url(#CLIPPATH_7)"  >
<clipPath id="CLIPPATH_7" >
	<path transform="matrix(-1 0 0 -1 -2.37 0.36) translate(-13.76, -13.76)" d="M 13.758 0 A 13.758 13.758 0 1 1 0 13.758 A 13.758 13.758 0 0 1 13.758 0 Z" stroke-linecap="round" />
</clipPath>
<line style="stroke: rgb(78,78,78); stroke-width: 1; stroke-dasharray: none; stroke-linecap: butt; stroke-dashoffset: 0; stroke-linejoin: miter; stroke-miterlimit: 10; fill: none; fill-rule: nonzero; opacity: 0;"  x1="-4.177" y1="0" x2="4.177" y2="0" />
</g>
		<g transform="matrix(-1 0 0 -1 1.19 -0.84)" clip-path="url(#CLIPPATH_8)"  >
<clipPath id="CLIPPATH_8" >
	<path transform="matrix(-1 0 0 -1 1.19 0.16) translate(-13.76, -13.76)" d="M 13.758 0 A 13.758 13.758 0 1 1 0 13.758 A 13.758 13.758 0 0 1 13.758 0 Z" stroke-linecap="round" />
</clipPath>
<path style="stroke: rgb(78,78,78); stroke-width: 1; stroke-dasharray: none; stroke-linecap: butt; stroke-dashoffset: 0; stroke-linejoin: miter; stroke-miterlimit: 10; fill: none; fill-rule: nonzero; opacity: 0;"  transform=" translate(-2.6, -8.32)" d="M 0 5.14 V 0.8 S 0.144 -0.554 0.72 0.26 L 4.9 7.581 a 1.226 1.226 0 0 1 0 1.627 L 0.72 16.528 s -0.576 0.542 -0.72 -0.813 V 11.376" stroke-linecap="round" />
</g>
		<g transform="matrix(1 0 0 1 0 -1)"  >
<path style="stroke: none; stroke-width: 1; stroke-dasharray: none; stroke-linecap: butt; stroke-dashoffset: 0; stroke-linejoin: miter; stroke-miterlimit: 4; fill: rgb(244,244,244); fill-rule: nonzero; opacity: 1;"  transform=" translate(-13.76, -13.76)" d="M 13.75750637054443 27.01505661010742 C 10.21629619598389 27.01505661010742 6.887046337127686 25.63603591918945 4.383036136627197 23.13201713562012 C 1.879016399383545 20.62799644470215 0.4999963641166687 17.29873657226562 0.4999963641166687 13.75752639770508 C 0.4999963641166687 10.21631622314453 1.879016399383545 6.887056350708008 4.383036136627197 4.383036613464355 C 6.887046337127686 1.879016399383545 10.21629619598389 0.4999963939189911 13.75750637054443 0.4999963939189911 C 17.29871559143066 0.4999963939189911 20.62796592712402 1.879016399383545 23.13197708129883 4.383036613464355 C 25.63599586486816 6.887056350708008 27.01501655578613 10.21631622314453 27.01501655578613 13.75752639770508 C 27.01501655578613 17.29873657226562 25.63599586486816 20.62799644470215 23.13197708129883 23.13201713562012 C 20.62796592712402 25.63603591918945 17.29871559143066 27.01505661010742 13.75750637054443 27.01505661010742 Z" stroke-linecap="round" />
</g>
		<g transform="matrix(1 0 0 1 0 -1)"  >
<path style="stroke: none; stroke-width: 1; stroke-dasharray: none; stroke-linecap: butt; stroke-dashoffset: 0; stroke-linejoin: miter; stroke-miterlimit: 4; fill: rgb(78,78,78); fill-rule: nonzero; opacity: 1;"  transform=" translate(-13.76, -13.76)" d="M 13.75750637054443 0.9999961853027344 C 10.34985542297363 0.9999961853027344 7.14616584777832 2.327016830444336 4.73658561706543 4.73658561706543 C 2.327007293701172 7.146177291870117 0.9999961853027344 10.34986686706543 0.9999961853027344 13.75752639770508 C 0.9999961853027344 17.16518592834473 2.327007293701172 20.36887741088867 4.73658561706543 22.77846527099609 C 7.14616584777832 25.18803596496582 10.34985542297363 26.51505661010742 13.75750637054443 26.51505661010742 C 17.16515731811523 26.51505661010742 20.36884689331055 25.18803596496582 22.77842712402344 22.77846527099609 C 25.18800735473633 20.36887741088867 26.51501655578613 17.16518592834473 26.51501655578613 13.75752639770508 C 26.51501655578613 10.34986686706543 25.18800735473633 7.146177291870117 22.77842712402344 4.73658561706543 C 20.36884689331055 2.327016830444336 17.16515731811523 0.9999961853027344 13.75750637054443 0.9999961853027344 M 13.75750637054443 -0.000003814697265625 C 21.35556602478027 -0.000003814697265625 27.51501655578613 6.159456253051758 27.51501655578613 13.75752639770508 C 27.51501655578613 21.3555965423584 21.35556602478027 27.51505661010742 13.75750637054443 27.51505661010742 C 6.159446716308594 27.51505661010742 -0.000003814697265625 21.3555965423584 -0.000003814697265625 13.75752639770508 C -0.000003814697265625 6.159456253051758 6.159446716308594 -0.000003814697265625 13.75750637054443 -0.000003814697265625 Z" stroke-linecap="round" />
</g>
		<g transform="matrix(-1 0 0 -1 2.08 -1.64)"  >
<line style="stroke: rgb(78,78,78); stroke-width: 1; stroke-dasharray: none; stroke-linecap: butt; stroke-dashoffset: 0; stroke-linejoin: miter; stroke-miterlimit: 10; fill: none; fill-rule: nonzero; opacity: 1;"  x1="-4.177" y1="0" x2="4.177" y2="0" />
</g>
		<g transform="matrix(-1 0 0 -1 -3.97 -1.5)"  >
<path style="stroke: rgb(78,78,78); stroke-width: 1; stroke-dasharray: none; stroke-linecap: butt; stroke-dashoffset: 0; stroke-linejoin: miter; stroke-miterlimit: 10; fill: none; fill-rule: nonzero; opacity: 1;"  transform=" translate(-2.84, -6.14)" d="M 0 3.794 V 0.592 s 0.157 -1 0.787 -0.4 L 5.354 5.6 a 0.709 0.709 0 0 1 0 1.2 L 0.787 12.2 s -0.63 0.4 -0.787 -0.6 V 8.4" stroke-linecap="round" />
</g>
</g>
</g>
</svg>